<svg width="12" height="12" viewBox="0 0 12 12" fill="none"
    xmlns="http://www.w3.org/2000/svg">
    <path d="M8.0625 6L11.1875 2.875C11.5938 2.5 11.5938 1.875 11.1875 1.5L10.5 0.8125C10.125 0.40625 9.5 0.40625 9.125 0.8125L6 3.9375L2.84375 0.8125C2.46875 0.40625 1.84375 0.40625 1.46875 0.8125L0.78125 1.5C0.375 1.875 0.375 2.5 0.78125 2.875L3.90625 6L0.78125 9.15625C0.375 9.53125 0.375 10.1562 0.78125 10.5312L1.46875 11.2188C1.84375 11.625 2.46875 11.625 2.84375 11.2188L6 8.09375L9.125 11.2188C9.5 11.625 10.125 11.625 10.5 11.2188L11.1875 10.5312C11.5938 10.1562 11.5938 9.53125 11.1875 9.15625L8.0625 6Z" fill="currentColor"/>
</svg>

